#tb 0: 1/25
#media_type 0: video
#codec_id 0: rawvideo
#dimensions 0: 352x288
#sar 0: 0/1
0,          0,          0,        1,   811008, 0x74e8cbc4
0,          1,          1,        1,   811008, 0xc107eef1
0,          2,          2,        1,   811008, 0x73fa3335
